<svg xmlns="http://www.w3.org/2000/svg" width="480" height="480" viewBox="0 0 480 480">
  <!-- Doodle pattern built from Tabler Icons (MIT license), arranged as a
       480×480 seamless tile. White strokes, meant to sit low-opacity on a
       colored background. -->
  <defs>
    <symbol id="i-star" viewBox="0 0 24 24"><path d="M12 17.75l-6.172 3.245l1.179 -6.873l-5 -4.867l6.9 -1l3.086 -6.253l3.086 6.253l6.9 1l-5 4.867l1.179 6.873l-6.158 -3.245"/></symbol>
    <symbol id="i-heart" viewBox="0 0 24 24"><path d="M19.5 12.572l-7.5 7.428l-7.5 -7.428a5 5 0 1 1 7.5 -6.566a5 5 0 1 1 7.5 6.572"/></symbol>
    <symbol id="i-sparkles" viewBox="0 0 24 24"><path d="M16 18a2 2 0 0 1 2 2a2 2 0 0 1 2 -2a2 2 0 0 1 -2 -2a2 2 0 0 1 -2 2m0 -12a2 2 0 0 1 2 2a2 2 0 0 1 2 -2a2 2 0 0 1 -2 -2a2 2 0 0 1 -2 2m-7 12a6 6 0 0 1 6 -6a6 6 0 0 1 -6 -6a6 6 0 0 1 -6 6a6 6 0 0 1 6 6"/></symbol>
    <symbol id="i-cloud" viewBox="0 0 24 24"><path d="M6.657 18c-2.572 0 -4.657 -2.007 -4.657 -4.483c0 -2.475 2.085 -4.482 4.657 -4.482c.393 -1.762 1.794 -3.2 3.675 -3.773c1.88 -.572 3.956 -.193 5.444 1c1.488 1.19 2.162 3.007 1.77 4.769h.99c1.913 0 3.464 1.56 3.464 3.486c0 1.927 -1.551 3.487 -3.465 3.487h-11.878"/></symbol>
    <symbol id="i-leaf" viewBox="0 0 24 24"><path d="M5 21c.5 -4.5 2.5 -8 7 -10"/><path d="M9 18c6.218 0 10.5 -3.288 11 -12v-2h-4.014c-9 0 -11.986 4 -12 9c0 1 0 3 2 5h3l.014 0"/></symbol>
    <symbol id="i-bolt" viewBox="0 0 24 24"><path d="M13 3l0 7l6 0l-8 11l0 -7l-6 0l8 -11"/></symbol>
    <symbol id="i-music" viewBox="0 0 24 24"><path d="M3 17a3 3 0 1 0 6 0a3 3 0 0 0 -6 0"/><path d="M13 17a3 3 0 1 0 6 0a3 3 0 0 0 -6 0"/><path d="M9 17v-13h10v13"/><path d="M9 8h10"/></symbol>
    <symbol id="i-gift" viewBox="0 0 24 24"><path d="M3 9a1 1 0 0 1 1 -1h16a1 1 0 0 1 1 1v2a1 1 0 0 1 -1 1h-16a1 1 0 0 1 -1 -1l0 -2"/><path d="M12 8l0 13"/><path d="M19 12v7a2 2 0 0 1 -2 2h-10a2 2 0 0 1 -2 -2v-7"/><path d="M7.5 8a2.5 2.5 0 0 1 0 -5a4.8 8 0 0 1 4.5 5a4.8 8 0 0 1 4.5 -5a2.5 2.5 0 0 1 0 5"/></symbol>
    <symbol id="i-feather" viewBox="0 0 24 24"><path d="M4 20l10 -10m0 -5v5h5m-9 -1v5h5m-9 -1v5h5m-5 -5l4 -4l4 -4"/><path d="M19 10c.638 -.636 1 -1.515 1 -2.486a3.515 3.515 0 0 0 -3.517 -3.514c-.97 0 -1.847 .367 -2.483 1m-3 13l4 -4l4 -4"/></symbol>
    <symbol id="i-ghost" viewBox="0 0 24 24"><path d="M5 11a7 7 0 0 1 14 0v7a1.78 1.78 0 0 1 -3.1 1.4a1.65 1.65 0 0 0 -2.6 0a1.65 1.65 0 0 1 -2.6 0a1.65 1.65 0 0 0 -2.6 0a1.78 1.78 0 0 1 -3.1 -1.4v-7"/><path d="M10 10l.01 0"/><path d="M14 10l.01 0"/><path d="M10 14a3.5 3.5 0 0 0 4 0"/></symbol>
    <symbol id="i-mushroom" viewBox="0 0 24 24"><path d="M20 11.1c0 -4.474 -3.582 -8.1 -8 -8.1s-8 3.626 -8 8.1a.9 .9 0 0 0 .9 .9h14.2a.9 .9 0 0 0 .9 -.9"/><path d="M10 12v7a2 2 0 1 0 4 0v-7"/></symbol>
  </defs>

  <g fill="none" stroke="#FFFFFF" stroke-width="2" stroke-linecap="round" stroke-linejoin="round">
    <!-- row 1 -->
    <use href="#i-star"     x="48"  y="36"  width="40" height="40" opacity="0.8" transform="rotate(-10 68 56)"/>
    <use href="#i-heart"    x="198" y="24"  width="36" height="36" opacity="0.75" transform="rotate(12 216 42)"/>
    <use href="#i-feather"  x="326" y="40"  width="42" height="42" opacity="0.7"  transform="rotate(-18 347 61)"/>
    <use href="#i-sparkles" x="410" y="20"  width="38" height="38" opacity="0.75" transform="rotate(4 429 39)"/>

    <!-- row 2 -->
    <use href="#i-cloud"    x="14"  y="140" width="46" height="46" opacity="0.7"  transform="rotate(-4 37 163)"/>
    <use href="#i-bolt"     x="126" y="120" width="34" height="34" opacity="0.85" transform="rotate(14 143 137)"/>
    <use href="#i-ghost"    x="210" y="150" width="42" height="42" opacity="0.7"  transform="rotate(-6 231 171)"/>
    <use href="#i-music"    x="330" y="130" width="40" height="40" opacity="0.75" transform="rotate(10 350 150)"/>

    <!-- row 3 -->
    <use href="#i-flower-simple" x="60" y="240" width="36" height="36" opacity="0.7"/>
    <use href="#i-leaf"     x="70"  y="240" width="40" height="40" opacity="0.75" transform="rotate(-20 90 260)"/>
    <use href="#i-mushroom" x="178" y="250" width="42" height="42" opacity="0.7"  transform="rotate(8 199 271)"/>
    <use href="#i-gift"     x="290" y="240" width="40" height="40" opacity="0.7"  transform="rotate(-8 310 260)"/>
    <use href="#i-star"     x="400" y="240" width="32" height="32" opacity="0.75" transform="rotate(20 416 256)"/>

    <!-- row 4 -->
    <use href="#i-sparkles" x="30"  y="370" width="36" height="36" opacity="0.7"  transform="rotate(-12 48 388)"/>
    <use href="#i-heart"    x="136" y="380" width="30" height="30" opacity="0.75" transform="rotate(6 151 395)"/>
    <use href="#i-feather"  x="230" y="360" width="38" height="38" opacity="0.7"  transform="rotate(22 249 379)"/>
    <use href="#i-cloud"    x="340" y="380" width="44" height="44" opacity="0.7"  transform="rotate(-8 362 402)"/>
    <use href="#i-bolt"     x="426" y="376" width="30" height="30" opacity="0.8"  transform="rotate(-16 441 391)"/>
  </g>
</svg>
